<mxfile host="app.diagrams.net" modified="2024-05-13T03:27:50.199Z" agent="Mozilla/5.0 (Windows NT 10.0; Win64; x64) AppleWebKit/537.36 (KHTML, like Gecko) Chrome/124.0.0.0 Safari/537.36" version="24.4.0" etag="yKoyb_PxRg2dJTenLMYS" type="github">
  <diagram name="第 1 页" id="OpOkxBcIAG0JuSs2JA1L">
    <mxGraphModel>
      <root>
        <mxCell id="0" />
        <mxCell id="1" parent="0" />
      </root>
    </mxGraphModel>
  </diagram>
</mxfile>
